<svg xmlns="http://www.w3.org/2000/svg" width="17.5" height="20" viewBox="0 0 17.5 20">
  <path id="trash_24px" data-name="trash 24px" d="M11.563,16.875h.625a.313.313,0,0,0,.313-.312V5.938a.313.313,0,0,0-.312-.312h-.625a.313.313,0,0,0-.312.313V16.563A.313.313,0,0,0,11.563,16.875Zm-6.25,0h.625a.313.313,0,0,0,.313-.312V5.938a.313.313,0,0,0-.312-.312H5.313A.313.313,0,0,0,5,5.938V16.563A.313.313,0,0,0,5.313,16.875ZM17.188,2.5H13.125L11.813.75a1.875,1.875,0,0,0-1.5-.75H7.188a1.875,1.875,0,0,0-1.5.75L4.375,2.5H.313A.313.313,0,0,0,0,2.813v.625a.312.312,0,0,0,.313.313H1.25V18.125A1.875,1.875,0,0,0,3.125,20h11.25a1.875,1.875,0,0,0,1.875-1.875V3.75h.938a.313.313,0,0,0,.313-.312V2.813A.313.313,0,0,0,17.188,2.5Zm-10.5-1a.629.629,0,0,1,.5-.25h3.125a.629.629,0,0,1,.5.25l.75,1H5.938ZM15,18.125a.625.625,0,0,1-.625.625H3.125a.625.625,0,0,1-.625-.625V3.75H15Zm-6.562-1.25h.625a.313.313,0,0,0,.313-.312V5.938a.313.313,0,0,0-.312-.312H8.438a.313.313,0,0,0-.312.313V16.563A.313.313,0,0,0,8.438,16.875Z" fill="#fff"/>
</svg>
