<svg xmlns="http://www.w3.org/2000/svg" width="342" height="297.471" viewBox="0 0 342 297.471">
  <g id="Grupo_6504" data-name="Grupo 6504" transform="translate(-243.46 -162.052)">
    <g id="Small_Elements" data-name="Small Elements" transform="translate(243.46 242.65)">
      <g id="Grupo_6406" data-name="Grupo 6406" transform="translate(0 76.584)">
        <g id="Grupo_6405" data-name="Grupo 6405">
          <path id="Caminho_3325" data-name="Caminho 3325" d="M269.763,670h-1.857v9.9H255.528v10.831H243.46v11.759h1.857v-9.9h12.068V681.759h12.378Z" transform="translate(-243.46 -670)" fill="#283438"/>
        </g>
      </g>
      <g id="Grupo_6414" data-name="Grupo 6414" transform="translate(246.473 117.276)">
        <g id="Grupo_6411" data-name="Grupo 6411" transform="translate(10.985 19.959)">
          <g id="Grupo_6408" data-name="Grupo 6408" transform="translate(0.928 0.928)">
            <g id="Grupo_6407" data-name="Grupo 6407">
              <circle id="Elipse_26" data-name="Elipse 26" cx="10.831" cy="10.831" r="10.831" fill="#0096d6"/>
            </g>
          </g>
          <g id="Grupo_6410" data-name="Grupo 6410">
            <g id="Grupo_6409" data-name="Grupo 6409">
              <path id="Caminho_3326" data-name="Caminho 3326" d="M1087.219,889.518a11.759,11.759,0,1,1,11.759-11.759A11.772,11.772,0,0,1,1087.219,889.518Zm0-21.661a9.9,9.9,0,1,0,9.9,9.9A9.914,9.914,0,0,0,1087.219,867.857Z" transform="translate(-1075.46 -866)" fill="#283438"/>
            </g>
          </g>
        </g>
        <g id="Grupo_6413" data-name="Grupo 6413">
          <g id="Grupo_6412" data-name="Grupo 6412">
            <path id="Caminho_3327" data-name="Caminho 3327" d="M1054.968,831.516a15.008,15.008,0,1,1,15.008-15.008A15.025,15.025,0,0,1,1054.968,831.516Zm0-28.16a13.151,13.151,0,1,0,13.151,13.151A13.166,13.166,0,0,0,1054.968,803.357Z" transform="translate(-1039.96 -801.5)" fill="#283438"/>
          </g>
        </g>
      </g>
      <g id="Grupo_6417" data-name="Grupo 6417" transform="translate(311.549)">
        <g id="Grupo_6416" data-name="Grupo 6416">
          <g id="Grupo_6415" data-name="Grupo 6415">
            <path id="Caminho_3328" data-name="Caminho 3328" d="M1280.708,448.811h-30.451l15.226-26.3Zm-27.231-1.857h24.011l-12.006-20.737Z" transform="translate(-1250.257 -422.512)" fill="#283438"/>
          </g>
        </g>
      </g>
    </g>
    <g id="Key_hole" data-name="Key hole" transform="translate(256.794 200.097)">
      <g id="Grupo_6418" data-name="Grupo 6418" transform="translate(0 0)">
        <path id="Caminho_3329" data-name="Caminho 3329" d="M313.781,331.726,305.716,309.1a12.687,12.687,0,1,0-11.1,0l-8.065,22.628Z" transform="translate(-286.55 -285)" fill="#283438"/>
      </g>
    </g>
    <g id="Woman" transform="translate(257.015 162.052)">
      <g id="Grupo_6420" data-name="Grupo 6420" transform="translate(170.957 0)">
        <g id="Grupo_6419" data-name="Grupo 6419">
          <path id="Caminho_3330" data-name="Caminho 3330" d="M906.638,240.944s28.995-8.58,26.924-27.811c-1.423-13.215-10.355-15.681-26.924-19.231-9.969-2.136-16.628-12.091-30.031-24.7s-21.8-4.685-21.8-4.685-24.756-4.642-10.831,47.964Z" transform="translate(-839.727 -162.052)" fill="#283438"/>
        </g>
      </g>
      <g id="Grupo_6425" data-name="Grupo 6425" transform="translate(176.692 6.2)">
        <g id="Grupo_6422" data-name="Grupo 6422" transform="translate(0.935 1.186)">
          <g id="Grupo_6421" data-name="Grupo 6421">
            <path id="Caminho_3331" data-name="Caminho 3331" d="M869.07,240.351V212.108s-11.3-1.541-6.676-22.081l9.243-4.108s7.189,12.324,17.973,19v36.973Z" transform="translate(-861.284 -185.919)" fill="#fff"/>
          </g>
        </g>
        <g id="Grupo_6424" data-name="Grupo 6424">
          <g id="Grupo_6423" data-name="Grupo 6423">
            <path id="Caminho_3332" data-name="Caminho 3332" d="M888.452,240.245l-22.4-1.68V210.19a9.885,9.885,0,0,1-5.171-3.9c-2.9-4.173-3.4-10.6-1.482-19.11l.1-.455,10.429-4.635.419.718c.071.121,7.206,12.207,17.66,18.679l.44.272Zm-20.54-3.4,18.684,1.4V202.785c-9.251-5.9-15.716-15.612-17.413-18.333l-8.069,3.586c-1.653,7.648-1.207,13.586,1.3,17.19a7.622,7.622,0,0,0,4.7,3.313l.8.11Z" transform="translate(-858.262 -182.086)" fill="#283438"/>
          </g>
        </g>
      </g>
      <g id="Grupo_6430" data-name="Grupo 6430" transform="translate(78.949 119.404)">
        <g id="Grupo_6427" data-name="Grupo 6427" transform="translate(0.927 0.928)">
          <g id="Grupo_6426" data-name="Grupo 6426">
            <path id="Caminho_3333" data-name="Caminho 3333" d="M676.054,553.814l-112.006-2.892a18.964,18.964,0,0,0-10.155,2.562c-7,4.144-14.351,14.744-1.317,41.669,0,0,42.056,89.841,43.4,89.841s24.446-9.283,24.446-9.283l-29.459-87.269,75.161,3.758Z" transform="translate(-545.391 -550.915)" fill="#fff"/>
          </g>
        </g>
        <g id="Grupo_6429" data-name="Grupo 6429">
          <g id="Grupo_6428" data-name="Grupo 6428">
            <path id="Caminho_3334" data-name="Caminho 3334" d="M593.906,683.851c-.778,0-1.04,0-8.18-14.557-3.657-7.455-8.657-17.849-14.86-30.893-10.561-22.206-21.093-44.7-21.2-44.926-5.876-12.138-8.21-22.209-6.931-29.923a17.892,17.892,0,0,1,8.616-12.939A19.874,19.874,0,0,1,562,547.922l113.174,2.922-10.414,40.249-74.554-3.728,29.3,86.808-.814.327C611.7,677.312,595.279,683.851,593.906,683.851ZM561.452,549.772a17.936,17.936,0,0,0-9.155,2.439,15.885,15.885,0,0,0-7.73,11.644c-1.215,7.327,1.065,17.024,6.776,28.821,15.81,33.774,39.752,84.259,42.918,89.222,2.615-.756,14.816-5.541,22.93-8.794l-29.614-87.73,75.767,3.789,9.45-36.523-110.839-2.862C561.787,549.774,561.619,549.772,561.452,549.772Z" transform="translate(-542.396 -547.915)" fill="#283438"/>
          </g>
        </g>
      </g>
      <g id="Grupo_6435" data-name="Grupo 6435" transform="translate(24.01 117.942)">
        <g id="Grupo_6432" data-name="Grupo 6432" transform="translate(0.928 1.023)">
          <g id="Grupo_6431" data-name="Grupo 6431">
            <path id="Caminho_3335" data-name="Caminho 3335" d="M551.292,556.4s9.663,41.875-28.722,42.949l-76.756-9.127S390.48,688.47,388.6,687.665s-20.747-9.6-20.747-10.671,35.972-82.239,49.238-109.049c3.571-7.216,10.518-12.161,30.064-11.543h50.665l9.007-9.9Z" transform="translate(-367.854 -546.5)" fill="#fff"/>
          </g>
        </g>
        <g id="Grupo_6434" data-name="Grupo 6434">
          <g id="Grupo_6433" data-name="Grupo 6433">
            <path id="Caminho_3336" data-name="Caminho 3336" d="M386.567,686.322a1.011,1.011,0,0,1-.4-.088c-1.019-.437-6.278-2.875-11.122-5.255-10.188-5.005-10.188-5.536-10.188-6.269,0-.281,0-.6,5.906-14.094,3.8-8.671,8.7-19.737,13.82-31.159,6.216-13.877,21.545-47.912,29.609-64.208a18.467,18.467,0,0,1,9.5-9.145c5.065-2.256,12.075-3.21,21.43-2.913h50.225l9.093-10,45.562,10.147.132.57c.192.834,4.6,20.583-5.378,33.492-5.2,6.725-13.348,10.289-24.223,10.593l-.068,0-.068-.008-76.141-9.053c-2.11,3.742-14.835,26.291-27.6,48.49-8.171,14.207-14.761,25.494-19.588,33.547-2.87,4.788-5.141,8.475-6.752,10.957-.874,1.348-1.575,2.373-2.083,3.047S387.211,686.322,386.567,686.322ZM366.83,674.49c2.3,1.726,16.007,8.229,19.571,9.821,4.158-4.786,35.765-59.954,56.532-96.826l.3-.539.615.073,76.688,9.119c10.258-.3,17.908-3.621,22.738-9.87,8.54-11.049,5.793-28.065,5.154-31.373L505.08,545.24l-8.92,9.807H445.084c-20.579-.65-26.208,4.915-29.232,11.026C403.3,591.448,369.4,667.692,366.83,674.49Zm-.26-.225" transform="translate(-364.854 -543.193)" fill="#283438"/>
          </g>
        </g>
      </g>
      <g id="Grupo_6448" data-name="Grupo 6448" transform="translate(116.582 213.626)">
        <g id="Grupo_6437" data-name="Grupo 6437">
          <g id="Grupo_6436" data-name="Grupo 6436">
            <path id="Caminho_3337" data-name="Caminho 3337" d="M664.009,866.027s16.31-.791,28.076-13.624l21.981,59.272s-14.345,16.63-31.93,24.573l4.511-21.031Z" transform="translate(-664.009 -852.403)" fill="#283438"/>
          </g>
        </g>
        <g id="Grupo_6439" data-name="Grupo 6439" transform="translate(20.979 65.641)">
          <g id="Grupo_6438" data-name="Grupo 6438" transform="translate(0 0)">
            <rect id="Retângulo_7431" data-name="Retângulo 7431" width="5.642" height="1.857" transform="translate(0 2.301) rotate(-24.071)" fill="#fff"/>
          </g>
        </g>
        <g id="Grupo_6441" data-name="Grupo 6441" transform="translate(22.204 59.674)">
          <g id="Grupo_6440" data-name="Grupo 6440" transform="translate(0 0)">
            <rect id="Retângulo_7432" data-name="Retângulo 7432" width="6.782" height="1.857" transform="translate(0 2.634) rotate(-22.851)" fill="#fff"/>
          </g>
        </g>
        <g id="Grupo_6443" data-name="Grupo 6443" transform="translate(20.15 53.96)">
          <g id="Grupo_6442" data-name="Grupo 6442" transform="translate(0 0)">
            <rect id="Retângulo_7433" data-name="Retângulo 7433" width="8.128" height="1.857" transform="matrix(0.909, -0.417, 0.417, 0.909, 0, 3.391)" fill="#fff"/>
          </g>
        </g>
        <g id="Grupo_6445" data-name="Grupo 6445" transform="translate(14.055 43.096)">
          <g id="Grupo_6444" data-name="Grupo 6444">
            <path id="Caminho_3338" data-name="Caminho 3338" d="M716.47,1008.143l-1.413-1.641c-.626-.728-6.1-7.233-5.6-11.617a3.8,3.8,0,0,1,1.563-2.745l.08-.052a3.247,3.247,0,0,1,3.3.073c2.316,1.489,3.063,6.012,2.285,13.827Zm-4.4-14.464a1.961,1.961,0,0,0-.762,1.418c-.266,2.307,1.959,5.957,3.723,8.368.466-7.451-.941-9.284-1.617-9.731A1.4,1.4,0,0,0,712.068,993.679Z" transform="translate(-709.429 -991.673)" fill="#fff"/>
          </g>
        </g>
        <g id="Grupo_6447" data-name="Grupo 6447" transform="translate(5.317 45.647)">
          <g id="Grupo_6446" data-name="Grupo 6446">
            <path id="Caminho_3339" data-name="Caminho 3339" d="M697.369,1013.575l-2.105-.509c-.443-.107-10.88-2.679-13.46-7.312a4.375,4.375,0,0,1-.383-3.619l.035-.09a3.757,3.757,0,0,1,3.1-2.125c3.175-.173,7.123,3.8,11.729,11.779Zm-14.2-10.8a2.557,2.557,0,0,0,.259,2.079c1.449,2.6,6.613,4.7,10.065,5.787-5.006-8.1-7.821-8.92-8.838-8.863A1.869,1.869,0,0,0,683.167,1002.771Z" transform="translate(-681.192 -999.915)" fill="#283438"/>
          </g>
        </g>
      </g>
      <g id="Grupo_6461" data-name="Grupo 6461" transform="translate(0 209.803)">
        <g id="Grupo_6450" data-name="Grupo 6450">
          <g id="Grupo_6449" data-name="Grupo 6449">
            <path id="Caminho_3340" data-name="Caminho 3340" d="M328.69,840.05s11.234,11.85,28.635,12.405l-30.61,55.312s-21.962-.034-39.45-8.188l18.887-10.291Z" transform="translate(-287.265 -840.05)" fill="#283438"/>
          </g>
        </g>
        <g id="Grupo_6452" data-name="Grupo 6452" transform="translate(13.04 51.368)">
          <g id="Grupo_6451" data-name="Grupo 6451" transform="translate(0 0)">
            <rect id="Retângulo_7434" data-name="Retângulo 7434" width="1.857" height="5.419" transform="translate(0 1.588) rotate(-58.785)" fill="#fff"/>
          </g>
        </g>
        <g id="Grupo_6454" data-name="Grupo 6454" transform="translate(18.158 48.579)">
          <g id="Grupo_6453" data-name="Grupo 6453" transform="translate(0 0)">
            <rect id="Retângulo_7435" data-name="Retângulo 7435" width="1.857" height="6.7" transform="translate(0 1.659) rotate(-63.324)" fill="#fff"/>
          </g>
        </g>
        <g id="Grupo_6456" data-name="Grupo 6456" transform="translate(20.591 44.078)">
          <g id="Grupo_6455" data-name="Grupo 6455" transform="translate(0 0)">
            <rect id="Retângulo_7436" data-name="Retângulo 7436" width="1.857" height="8.128" transform="translate(0 1.687) rotate(-65.349)" fill="#fff"/>
          </g>
        </g>
        <g id="Grupo_6458" data-name="Grupo 6458" transform="translate(20.344 31.282)">
          <g id="Grupo_6457" data-name="Grupo 6457">
            <path id="Caminho_3341" data-name="Caminho 3341" d="M353.009,955.809l.324-2.142c.143-.949,1.506-9.342,5.159-11.817a3.8,3.8,0,0,1,3.1-.6l.092.027a3.246,3.246,0,0,1,2.093,2.547c.381,2.726-2.561,6.242-8.994,10.747ZM360.7,943a2.034,2.034,0,0,0-1.163.39c-1.926,1.3-3.242,5.371-3.918,8.279,5.955-4.506,6.426-6.768,6.325-7.572a1.4,1.4,0,0,0-.835-1.055A2.06,2.06,0,0,0,360.7,943Z" transform="translate(-353.009 -941.14)" fill="#fff"/>
          </g>
        </g>
        <g id="Grupo_6460" data-name="Grupo 6460" transform="translate(16.17 26.372)">
          <g id="Grupo_6459" data-name="Grupo 6459">
            <path id="Caminho_3342" data-name="Caminho 3342" d="M344.151,944.984l-.986-1.928c-.208-.406-5.063-10-3.232-14.973a4.378,4.378,0,0,1,2.495-2.65l.091-.032a3.756,3.756,0,0,1,3.634.967c2.2,2.3,1.763,7.878-1.284,16.573Zm-1.068-17.813a2.557,2.557,0,0,0-1.408,1.552c-1.027,2.791.749,8.077,2.175,11.4,2.88-9.077,1.662-11.739.957-12.479A1.87,1.87,0,0,0,343.083,927.171Z" transform="translate(-339.521 -925.273)" fill="#283438"/>
          </g>
        </g>
      </g>
      <g id="Grupo_6466" data-name="Grupo 6466" transform="translate(143.952 39.942)">
        <g id="Grupo_6463" data-name="Grupo 6463" transform="translate(1.266 1.198)">
          <g id="Grupo_6462" data-name="Grupo 6462">
            <path id="Caminho_3343" data-name="Caminho 3343" d="M858.266,345.622l-3.575-19.592a19.616,19.616,0,0,0-9.579-13.627l-27.447-15.7s-21.816,15.318-21.2-1.7l-8.681,2.157a37.4,37.4,0,0,0-20.061,12.224l-11.177,13.16,18.694,18.412-6.189,37.133,52.015,18.876,4.177-20.269,11.295-29.243Z" transform="translate(-756.55 -295)" fill="#0096d6"/>
          </g>
        </g>
        <g id="Grupo_6465" data-name="Grupo 6465">
          <g id="Grupo_6464" data-name="Grupo 6464">
            <path id="Caminho_3344" data-name="Caminho 3344" d="M818.937,395.527l-53.75-19.506,6.236-37.42-18.964-18.679,11.735-13.817a38.586,38.586,0,0,1,20.558-12.528l9.863-2.45-.045,1.232c-.123,3.388.678,5.576,2.382,6.5,4.337,2.356,14-3.239,17.354-5.594l.483-.338,27.958,15.994A20.486,20.486,0,0,1,852.781,323.2l3.757,20.593-22.165,1.866-11.058,28.629ZM767.272,374.8l50.279,18.246,3.977-19.292.028-.072,11.5-29.784,21.285-1.792-3.391-18.586a18.638,18.638,0,0,0-9.127-12.988l-26.943-15.413c-2.013,1.345-9.6,6.15-15.368,6.15a7.156,7.156,0,0,1-3.448-.779c-2.134-1.159-3.261-3.5-3.359-6.979l-7.523,1.869a36.726,36.726,0,0,0-19.577,11.924l-10.619,12.5,18.423,18.145Z" transform="translate(-752.459 -291.128)" fill="#283438"/>
          </g>
        </g>
      </g>
      <g id="Grupo_6471" data-name="Grupo 6471" transform="translate(112.194 66.937)">
        <g id="Grupo_6468" data-name="Grupo 6468" transform="translate(0.928 1.28)">
          <g id="Grupo_6467" data-name="Grupo 6467">
            <path id="Caminho_3345" data-name="Caminho 3345" d="M653.827,386.213s-3.893,31.565,3.713,37.443c6.808,5.261,24.137,1.857,45.488-25.993L685.39,382.5l-12.068,12.687Z" transform="translate(-652.831 -382.5)" fill="#fff"/>
          </g>
        </g>
        <g id="Grupo_6470" data-name="Grupo 6470">
          <g id="Grupo_6469" data-name="Grupo 6469">
            <path id="Caminho_3346" data-name="Caminho 3346" d="M662.346,423.8a11.949,11.949,0,0,1-7.445-2.269c-3.395-2.623-5.1-9.912-5.07-21.663a158.371,158.371,0,0,1,1-16.628l.156-1.261,20.046,9.227,12.219-12.846,18.973,16.311-.534.7c-17.389,22.681-30.58,27.447-36.9,28.268A19.029,19.029,0,0,1,662.346,423.8Zm-9.816-39.068c-1.036,9.457-2.121,30.982,3.506,35.33,2.059,1.591,5.006,2.191,8.523,1.733,5.966-.776,18.415-5.312,35.125-26.862l-16.3-14.014-11.918,12.529Z" transform="translate(-649.831 -378.365)" fill="#283438"/>
          </g>
        </g>
      </g>
      <g id="Grupo_6474" data-name="Grupo 6474" transform="translate(60.427 49.141)">
        <g id="Grupo_6472" data-name="Grupo 6472" transform="translate(1.258 1.258)">
          <path id="Caminho_3347" data-name="Caminho 3347" d="M496.346,324.922l-9.739,18,5.352,2.9,2.369-4.379,4.865,2.632-2.369,4.379,3.892,2.106,2.369-4.379,4.865,2.632-2.369,4.379,5.109,2.764,9.739-18Z" transform="translate(-486.607 -324.922)" fill="#fcbc03"/>
        </g>
        <g id="Grupo_6473" data-name="Grupo 6473">
          <path id="Caminho_3348" data-name="Caminho 3348" d="M508.257,354.4l-6.742-3.647,2.369-4.379-3.232-1.749-2.369,4.379-5.525-2.989,2.369-4.379-3.232-1.749-2.369,4.379-6.985-3.779,10.623-19.635,25.716,13.913Zm-4.225-4.4,3.475,1.88,8.856-16.369-22.45-12.146-8.855,16.369,3.719,2.012,2.369-4.379,6.5,3.516-2.369,4.379,2.259,1.222,2.369-4.379,6.5,3.516Z" transform="translate(-482.541 -320.855)" fill="#283438"/>
        </g>
      </g>
      <g id="Grupo_6479" data-name="Grupo 6479" transform="translate(104.277 55.801)">
        <g id="Grupo_6476" data-name="Grupo 6476" transform="translate(0.926 0.929)">
          <g id="Grupo_6475" data-name="Grupo 6475">
            <path id="Caminho_3349" data-name="Caminho 3349" d="M628.11,350.676s-2.476-4.642.928-5.261,8.664,6.5,9.283,10.831Z" transform="translate(-627.241 -345.378)" fill="#fff"/>
          </g>
        </g>
        <g id="Grupo_6478" data-name="Grupo 6478">
          <g id="Grupo_6477" data-name="Grupo 6477">
            <path id="Caminho_3350" data-name="Caminho 3350" d="M637.435,355.875l-12.081-6.589-.131-.245c-.166-.312-1.6-3.1-.662-5.034a2.907,2.907,0,0,1,2.243-1.577,5.048,5.048,0,0,1,3.8,1.182c3.018,2.175,6.088,7.049,6.571,10.431Zm-10.691-7.946,8.042,4.386a17.586,17.586,0,0,0-5.27-7.2,3.451,3.451,0,0,0-2.379-.861c-.622.113-.813.372-.9.557C625.859,345.584,626.36,347.106,626.744,347.928Z" transform="translate(-624.247 -342.376)" fill="#283438"/>
          </g>
        </g>
      </g>
      <g id="Grupo_6483" data-name="Grupo 6483" transform="translate(65.108 39.646)">
        <g id="Grupo_6482" data-name="Grupo 6482">
          <g id="Grupo_6480" data-name="Grupo 6480" transform="translate(1.26 1.26)">
            <rect id="Retângulo_7437" data-name="Retângulo 7437" width="9.283" height="106.229" transform="translate(0 8.141) rotate(-61.278)" fill="#fcbc03"/>
          </g>
          <g id="Grupo_6481" data-name="Grupo 6481">
            <path id="Caminho_3351" data-name="Caminho 3351" d="M592.454,351.881,497.667,299.94l5.353-9.77,94.787,51.942ZM500.187,299.2l91.531,50.157,3.569-6.513L503.757,292.69Z" transform="translate(-497.667 -290.17)" fill="#283438"/>
          </g>
        </g>
      </g>
      <g id="Grupo_6487" data-name="Grupo 6487" transform="translate(149.091 75.231)">
        <g id="Grupo_6486" data-name="Grupo 6486">
          <g id="Grupo_6484" data-name="Grupo 6484" transform="translate(0.937 0.928)">
            <path id="Caminho_3352" data-name="Caminho 3352" d="M787.536,463.975A29.735,29.735,0,1,1,827.9,452.188,29.768,29.768,0,0,1,787.536,463.975Zm22.63-41.3a17.357,17.357,0,1,0,6.88,23.563A17.377,17.377,0,0,0,810.167,422.677Z" transform="translate(-772.096 -408.169)" fill="#fcbc03"/>
          </g>
          <g id="Grupo_6485" data-name="Grupo 6485">
            <path id="Caminho_3353" data-name="Caminho 3353" d="M799.666,466.494a30.8,30.8,0,1,1,8.659-1.247A30.864,30.864,0,0,1,799.666,466.494Zm.116-59.469a28.809,28.809,0,0,0-13.892,54.064h0a28.807,28.807,0,1,0,13.892-54.064Zm-.089,47.09a18.287,18.287,0,1,1,8.827-34.324h0a18.3,18.3,0,0,1-8.827,34.324Zm.068-34.714a16.424,16.424,0,1,0,7.867,2.019A16.442,16.442,0,0,0,799.762,419.4Z" transform="translate(-769.066 -405.168)" fill="#283438"/>
          </g>
        </g>
      </g>
      <g id="Grupo_6492" data-name="Grupo 6492" transform="translate(176.636 89.95)">
        <g id="Grupo_6489" data-name="Grupo 6489" transform="translate(0.929 1.011)">
          <g id="Grupo_6488" data-name="Grupo 6488">
            <path id="Caminho_3354" data-name="Caminho 3354" d="M904.241,458.476l4.177,27.7-25.993-17.329s-11.787-8.046-14.544,4.023c0,0-4.979,2.166-3.094,6.808,0,0-5.106,1.547-3.327,8.51a17.611,17.611,0,0,0,8.123-1.006s6.034,1.47,8.819,9.515c0,0,35.558,25.065,50.44,11.45,0,0,6.47-3.713,4.642-23.827L930.234,456Z" transform="translate(-861.083 -456)" fill="#fff"/>
          </g>
        </g>
        <g id="Grupo_6491" data-name="Grupo 6491">
          <g id="Grupo_6490" data-name="Grupo 6490">
            <path id="Caminho_3355" data-name="Caminho 3355" d="M914.955,510.9q-8.086,0-19.35-4.774A121.627,121.627,0,0,1,875.793,495.2l-.245-.172-.1-.283c-2.284-6.6-6.845-8.483-7.927-8.845a18.259,18.259,0,0,1-8.307.945l-.583-.108-.147-.574c-1.5-5.857,1.509-8.355,3.082-9.23-.965-3.575,1.57-5.98,3.44-6.963.853-3.336,2.488-5.5,4.865-6.429,4.806-1.884,10.75,2.114,11,2.285l24.239,16.159-4.011-26.59,27.876-2.655,3.353,29.219c1.759,19.342-4.093,24.064-5,24.671C924.191,509.473,920.053,510.9,914.955,510.9ZM877.1,493.844c3.121,2.136,35.5,23.745,49.038,11.358l.076-.069.089-.051c.047-.029,5.911-3.888,4.179-22.938l-3.143-27.387-24.111,2.3,4.344,28.8-27.739-18.493c-.061-.041-5.4-3.623-9.289-2.094-1.871.736-3.161,2.6-3.835,5.551l-.1.457-.43.187c-.421.187-4.095,1.938-2.6,5.607l.383.942-.974.3c-.161.052-3.939,1.325-2.838,6.773a18.313,18.313,0,0,0,7.067-1.036l.256-.087.262.064C867.992,484.083,874.144,485.668,877.1,493.844Z" transform="translate(-858.08 -452.734)" fill="#283438"/>
          </g>
        </g>
      </g>
      <g id="Grupo_6494" data-name="Grupo 6494" transform="translate(181.42 113.115)">
        <g id="Grupo_6493" data-name="Grupo 6493">
          <path id="Caminho_3356" data-name="Caminho 3356" d="M882.313,531.278c-.043-.028-4.319-2.813-8.148-1.446l-.624-1.748c4.717-1.685,9.6,1.512,9.8,1.649Z" transform="translate(-873.541 -527.594)" fill="#283438"/>
        </g>
      </g>
      <g id="Grupo_6496" data-name="Grupo 6496" transform="translate(184.014 106.366)">
        <g id="Grupo_6495" data-name="Grupo 6495">
          <path id="Caminho_3357" data-name="Caminho 3357" d="M892.07,510.952c-.173-.195-4.308-4.754-9.505-2.839l-.642-1.742c6.4-2.359,11.331,3.117,11.538,3.351Z" transform="translate(-881.923 -505.782)" fill="#283438"/>
        </g>
      </g>
      <g id="Grupo_6501" data-name="Grupo 6501" transform="translate(110.717 62.924)">
        <g id="Grupo_6498" data-name="Grupo 6498" transform="translate(0.929 0.927)">
          <g id="Grupo_6497" data-name="Grupo 6497">
            <path id="Caminho_3358" data-name="Caminho 3358" d="M666.468,387.766c-.541,1.172-2.785,4.023-4.808-1.913,0,0-4.711,5.363-6.914-3.789,0,0-5.6,7.393-6.687-3.664a43.735,43.735,0,0,1,.952-8.188,2.4,2.4,0,0,1,4.132-1,7.394,7.394,0,0,1,1.565,4.633l.428-1.855a1.979,1.979,0,0,1,3.016-1.214c1.374.913,2.891,2.7,3.364,6.163l.6-1.65a1.728,1.728,0,0,1,2.567-.869c1.627,1.085,3.606,3.393,3.022,8.088A21.224,21.224,0,0,1,666.468,387.766Z" transform="translate(-648.059 -368.392)" fill="#fff"/>
          </g>
        </g>
        <g id="Grupo_6500" data-name="Grupo 6500">
          <g id="Grupo_6499" data-name="Grupo 6499">
            <path id="Caminho_3359" data-name="Caminho 3359" d="M662.38,388.345c-.038,0-.077,0-.116,0-1.2-.062-2.215-1.045-3.069-2.995a4.2,4.2,0,0,1-3.384.83c-1.533-.379-2.734-1.838-3.579-4.346-.977.887-2.431,1.826-3.909,1.41-1.793-.506-2.86-2.737-3.261-6.82l-.006-.054v-.054a44.165,44.165,0,0,1,.981-8.4,3.34,3.34,0,0,1,2.475-2.427,3.3,3.3,0,0,1,3.258,1.044,6.526,6.526,0,0,1,1.108,1.834,2.9,2.9,0,0,1,3.715-.433,8.193,8.193,0,0,1,3.1,4.089,2.672,2.672,0,0,1,1.155-.749,2.6,2.6,0,0,1,2.271.305c1.568,1.045,4.1,3.6,3.429,8.975a22.6,22.6,0,0,1-1.316,5.535h0A3.518,3.518,0,0,1,662.38,388.345Zm-2.43-6.366.516,1.5c.98,2.875,1.8,3,1.9,3,.373.025.927-.606,1.191-1.18a20.443,20.443,0,0,0,1.16-4.986c.518-4.165-1.137-6.215-2.616-7.2a.755.755,0,0,0-.663-.086.818.818,0,0,0-.517.5l-1.884,5.182-.508-3.724c-.353-2.589-1.348-4.445-2.958-5.515a1.022,1.022,0,0,0-.956-.1,1.047,1.047,0,0,0-.642.747l-1.926,8.349-.333-6.657a6.6,6.6,0,0,0-1.339-4.071,1.426,1.426,0,0,0-1.428-.455,1.469,1.469,0,0,0-1.1,1.08,42.53,42.53,0,0,0-.922,7.922c.442,4.408,1.574,5.063,1.911,5.159.976.278,2.514-1.242,3.107-2.021l1.184-1.553.458,1.9c.648,2.694,1.6,4.326,2.677,4.6,1.05.264,2.261-.781,2.639-1.205Z" transform="translate(-645.056 -365.396)" fill="#283438"/>
          </g>
        </g>
      </g>
      <g id="Grupo_6503" data-name="Grupo 6503" transform="translate(216.998 78.718)">
        <g id="Grupo_6502" data-name="Grupo 6502" transform="translate(0 0)">
          <rect id="Retângulo_7438" data-name="Retângulo 7438" width="1.857" height="14.808" transform="matrix(0.982, -0.188, 0.188, 0.982, 0, 0.349)" fill="#283438"/>
        </g>
      </g>
    </g>
  </g>
</svg>
