<svg id="printer-14" xmlns="http://www.w3.org/2000/svg" width="55.404" height="60.423" viewBox="0 0 55.404 60.423">
  <path id="Caminho_3874" data-name="Caminho 3874" d="M17.911,3.468V5.161h4.194V3.468Zm-10.906,0V5.161H11.2V3.468Zm5.316,0V5.161h4.194V3.468Zm5.589,3.726V8.887h4.194V7.194Zm-10.906,0V8.887H11.2V7.194Zm5.316,0V8.887h4.194V7.194ZM19.87,32.139v1.693h6.7V32.139Zm.24,10.637v1.693H26.8V42.776Zm0,10.6v1.693H26.8V53.374ZM7.006,3.468V5.161H11.2V3.468Zm0,3.726V8.887H11.2V7.194Zm5.316-3.726V5.161h4.194V3.468Zm0,3.726V8.887h4.194V7.194Zm5.589-3.726V5.161h4.194V3.468Zm0,3.726V8.887h4.194V7.194ZM19.87,32.139v1.693h6.7V32.139Zm.24,10.637v1.693H26.8V42.776Zm0,10.6v1.693H26.8V53.374Zm-.24-21.235v1.693h6.7V32.139Zm.24,10.637v1.693H26.8V42.776Zm0,10.6v1.693H26.8V53.374Zm-2.2-46.18V8.887h4.194V7.194Zm0-3.726V5.161h4.194V3.468ZM12.322,7.194V8.887h4.194V7.194Zm0-3.726V5.161h4.194V3.468ZM7.006,7.194V8.887H11.2V7.194Zm0-3.726V5.161H11.2V3.468Zm0,0V5.161H11.2V3.468Zm0,3.726V8.887H11.2V7.194Zm5.316-3.726V5.161h4.194V3.468Zm0,3.726V8.887h4.194V7.194Zm5.589-3.726V5.161h4.194V3.468Zm0,3.726V8.887h4.194V7.194ZM19.87,32.139v1.693h6.7V32.139Zm.24,10.637v1.693H26.8V42.776Zm0,10.6v1.693H26.8V53.374Zm-.24-21.235v1.693h6.7V32.139Zm.24,10.637v1.693H26.8V42.776Zm0,10.6v1.693H26.8V53.374Zm-2.2-44.487h4.194V7.194H17.911Zm0-5.419V5.161h4.194V3.468ZM12.322,8.887h4.194V7.194H12.322Zm0-3.727h4.194V3.468H12.322ZM7.006,8.887H11.2V7.194H7.006Zm0-3.727H11.2V3.468H7.006Zm36.77,42.447V39.151h.1a.83.83,0,0,0,.457-.136L58.063,30.2l-.915-1.425L43.777,37.361V27.432a.845.845,0,0,0-.845-.847h-25.8V19.513h25.8a.844.844,0,0,0,.845-.845V11.79a.845.845,0,0,0-.845-.847H26.45V1.693H43.186V0H3.5a.845.845,0,0,0-.845.847V59.576a.846.846,0,0,0,.845.847H42.931a.846.846,0,0,0,.845-.847V49.395h.1a.844.844,0,0,0,.457-.134l13.73-8.814-.915-1.425ZM4.351,1.693H24.757v9.25H4.351ZM42.084,58.729H4.351V49.788H42.083v8.942Zm0-11.027H42v.391H4.351V39.151H42.083V47.7Zm0-10.246H4.351V12.635H42.083V17.82h-25.8a.845.845,0,0,0-.847.847v8.763a.845.845,0,0,0,.847.845h25.8v9.181ZM26.8,53.374H20.11v1.693H26.8Zm0-10.6H20.11v1.693H26.8Zm-.238-10.637h-6.7v1.693h6.7ZM17.911,8.887h4.194V7.194H17.911Zm0-3.727h4.194V3.468H17.911ZM12.322,8.887h4.194V7.194H12.322Zm0-3.727h4.194V3.468H12.322ZM7.006,8.887H11.2V7.194H7.006Zm0-3.727H11.2V3.468H7.006Zm0-1.692V5.161H11.2V3.468Zm0,3.726V8.887H11.2V7.194Zm5.316-3.726V5.161h4.194V3.468Zm0,3.726V8.887h4.194V7.194Zm5.589-3.726V5.161h4.194V3.468Zm0,3.726V8.887h4.194V7.194Zm2.2,46.18v1.693H26.8V53.374Zm0-10.6v1.693H26.8V42.776Zm-.24-10.637v1.693h6.7V32.139Zm.24,21.235v1.693H26.8V53.374Zm0-10.6v1.693H26.8V42.776Zm-.24-10.637v1.693h6.7V32.139ZM17.911,7.194V8.887h4.194V7.194Zm0-3.726V5.161h4.194V3.468ZM12.322,7.194V8.887h4.194V7.194Zm0-3.726V5.161h4.194V3.468ZM7.006,7.194V8.887H11.2V7.194Zm0-3.726V5.161H11.2V3.468Zm13.1,39.308v1.693H26.8V42.776Zm-.24-10.637v1.693h6.7V32.139ZM7.006,3.468V5.161H11.2V3.468Zm0,3.726V8.887H11.2V7.194Zm5.316-3.726V5.161h4.194V3.468Zm0,3.726V8.887h4.194V7.194Zm5.589-3.726V5.161h4.194V3.468Zm0,3.726V8.887h4.194V7.194Zm2.2,46.18v1.693H26.8V53.374Z" transform="translate(-2.659)" fill="#0096d6"/>
  <path id="Caminho_3875" data-name="Caminho 3875" d="M4.451,1.793v9.25H24.857V1.793ZM11.3,8.987H7.1V7.294H11.3Zm0-3.727H7.1V3.568H11.3Zm5.32,3.727H12.423V7.294h4.194Zm0-3.727H12.423V3.568h4.194Zm5.588,3.727H18.012V7.294h4.194Zm0-3.727H18.012V3.568h4.194Z" transform="translate(-2.759 -0.1)" fill="#0096d6" opacity="0.78"/>
  <path id="Caminho_3876" data-name="Caminho 3876" d="M4.451,50.535v8.942H42.183V50.535ZM26.9,55.814H20.21V54.121H26.9ZM4.451,39.9v8.942H42.1V48.45h.085V39.9ZM26.9,45.216H20.21V43.523H26.9ZM16.383,18.568h25.8V13.383H4.451V38.2H42.183v-9.18h-25.8a.845.845,0,0,1-.847-.845V19.416A.845.845,0,0,1,16.383,18.568ZM19.97,32.887h6.7V34.58h-6.7Z" transform="translate(-2.759 -0.748)" fill="#0096d6" opacity="0.41"/>
</svg>
