<svg id="Layer_2" data-name="Layer 2" xmlns="http://www.w3.org/2000/svg" width="130.364" height="130.364" viewBox="0 0 130.364 130.364">
  <g id="Layer_1" data-name="Layer 1">
    <path id="Caminho_2" data-name="Caminho 2" d="M65.182,130.364c-.649,0-1.295,0-1.937-.03l13.32-36.61H94.9a8.975,8.975,0,0,0,7.846-5.5l14.452-39.7c2.363-6.5-1.358-11.814-8.274-11.814H83.493L62.164,95.359h0L50.048,128.6A65.194,65.194,0,0,1,47.583,2.414L35.1,36.725h0l-20.756,57H28.161l17.647-48.44H56.189L38.542,93.726H52.351L68.8,48.53c2.366-6.5-1.358-11.814-8.265-11.814H48.92L62.252.069Q63.709,0,65.182,0a65.182,65.182,0,0,1,0,130.364ZM104.62,45.247H94.242L79.706,85.129H90.087Z" fill="#fff"/>
  </g>
</svg>
