<svg xmlns="http://www.w3.org/2000/svg" width="41.309" height="41.309" viewBox="0 0 41.309 41.309">
  <path id="Caminho_3" data-name="Caminho 3" d="M236.667,149.343c-.205,0-.41,0-.614-.01l4.221-11.6h5.809a2.848,2.848,0,0,0,2.488-1.741l4.58-12.579a2.613,2.613,0,0,0-2.622-3.744h-8.059l-6.762,18.581h0l-3.833,10.533a20.66,20.66,0,0,1-.781-39.986l-3.955,10.872h0l-6.576,18.065h4.377l5.592-15.35h3.29l-5.592,15.35H232.6l5.211-14.321a2.612,2.612,0,0,0-2.619-3.744h-3.68l4.225-11.612c.308-.014.617-.022.928-.022a20.655,20.655,0,0,1,0,41.309Zm12.5-26.971h-3.289l-4.606,12.637h3.289Z" transform="translate(-216.012 -108.034)" fill="#0096d6"/>
</svg>
